# xmcd
#
# Track frame offsets:
# 150
# 7888
# 15938
# 23850
# 30425
# 41188
# 50025
# 60600
# 73575
# 81713
# 89900
# 99725
# 107550
# 115913
# 124425
# 131625
#
# Disc length: 1959 seconds
#
#
# Revision: 0
# Processed by: cddbd v1.5PL3 Copyright (c) Steve Scherf et al.
# Submitted via: FreeRIP 2.60 
#
DISCID=df07a510
DTITLE=John Mason - Wildwood Flower
DYEAR=1990
DGENRE=Country
TTITLE0=Soldier's Joy
TTITLE1=Golden Slippers
TTITLE2=Murphy's Slide
TTITLE3=Wildwood Flower
TTITLE4=Whiskey Before Breakfast
TTITLE5=Irish Washerwoman
TTITLE6=Blackberry Blossoms
TTITLE7=Island of St. Helena
TTITLE8=Over the Waterfall
TTITLE9=Liberty
TTITLE10=Girl I Left Behind
TTITLE11=Road to Lisdonvarna
TTITLE12=Loch Lamond
TTITLE13=Go Tell Aunt Rhodie
TTITLE14=Kesh Jig
TTITLE15=Midnight on the Water
EXTD=
EXTT0=
EXTT1=
EXTT2=
EXTT3=
EXTT4=
EXTT5=
EXTT6=
EXTT7=
EXTT8=
EXTT9=
EXTT10=
EXTT11=
EXTT12=
EXTT13=
EXTT14=
EXTT15=
PLAYORDER=
